<svg xmlns="http://www.w3.org/2000/svg" width="900" height="1200" viewBox="0 0 900 1200">
  <defs>
    <linearGradient id="bg" x1="0" y1="0" x2="1" y2="1">
      <stop offset="0" stop-color="#2a1a40"/>
      <stop offset="0.58" stop-color="#1a1035"/>
      <stop offset="1" stop-color="#0d0720"/>
    </linearGradient>
    <radialGradient id="glow" cx="50%" cy="25%" r="65%">
      <stop offset="0" stop-color="#d4af37" stop-opacity=".32"/>
      <stop offset="1" stop-color="#d4af37" stop-opacity="0"/>
    </radialGradient>
    <filter id="shadow" x="-30%" y="-30%" width="160%" height="160%">
      <feDropShadow dx="0" dy="18" stdDeviation="18" flood-color="#000" flood-opacity=".42"/>
    </filter>
  </defs>
  <rect width="900" height="1200" rx="28" fill="url(#bg)"/>
  <rect width="900" height="1200" rx="28" fill="url(#glow)"/>
  <path d="M80 82H820" stroke="#d4af37" stroke-width="5" stroke-linecap="round" opacity=".8"/>
  <text x="450" y="150" text-anchor="middle" fill="#d4af37" font-family="Georgia, serif" font-size="30" font-weight="700" letter-spacing="7">PILATES EN CASA</text>
  <g filter="url(#shadow)">
    <rect x="205" y="245" width="490" height="500" rx="42" fill="#f7f0dc"/>
    <path d="M570 245h65l60 60v380a60 60 0 0 1-60 60H265a60 60 0 0 1-60-60V305a60 60 0 0 1 60-60z" fill="#fffaf0"/>
    <path d="M570 245v60h125" fill="#ead9a4" stroke="#d4af37" stroke-width="8"/>
    <rect x="290" y="430" width="320" height="155" rx="24" fill="#2a1a40"/>
    <text x="450" y="532" text-anchor="middle" fill="#d4af37" font-family="Arial, sans-serif" font-size="78" font-weight="800">PDF</text>
    <path d="M310 640H590M310 680H540" stroke="#9b7ec8" stroke-width="18" stroke-linecap="round" opacity=".75"/>
  </g>
  <text x="450" y="860" text-anchor="middle" fill="#ffffff" font-family="Georgia, serif" font-size="52" font-weight="700">JUGOS DETOX</text>
  <text x="450" y="930" text-anchor="middle" fill="#d4af37" font-family="Georgia, serif" font-size="48" font-weight="700">SALUDABLES</text>
  <text x="450" y="1030" text-anchor="middle" fill="#c9a8f0" font-family="Arial, sans-serif" font-size="30" letter-spacing="3">BONO EXCLUSIVO</text>
  <circle cx="450" cy="1100" r="6" fill="#d4af37"/>
</svg>